<svg id="SvgjsSvg1078" width="360" height="360" xmlns="http://www.w3.org/2000/svg" version="1.1" xmlns:xlink="http://www.w3.org/1999/xlink" xmlns:svgjs="http://svgjs.com/svgjs"><defs id="SvgjsDefs1079"></defs><g id="SvgjsG1080"><svg xmlns="http://www.w3.org/2000/svg" data-name="&amp;lt;Layer&amp;gt;" viewBox="0 0 2742 1828" width="360" height="360"><g data-name="Ñëîé 4"><path fill="#6b80f8" fill-rule="evenodd" d="M1187.82,1100.66c-100.23,65.37-134.48,174.84-134.48,174.84s-11.41-61.86-30.91-64.12c-73.91-8.56-320.25,200.95-320.25,200.95s148.53-181.54,158-246.36c11.29-77.52-148.23-33.36-148.23-33.36s76.3-79.53,62.86-104.13c-51.31-94-450.52,48.41-450.52,48.41s323.31-175.63,359-259.26c9.24-21.65-10.19-55-41.54-80.63-51.39-42-129.84-73.27-129.84-73.27s323.64,30.32,413.61-27.09Z" class="colorf8c66b svgShape"></path><path fill="#00c6ff" fill-rule="evenodd" d="M1187.49,1046.1c-133,26.75-319.15,194.25-319.15,194.25s59.07-93.86,66.36-143.86c8.71-59.82-114.36-25.74-114.36-25.74s94.48-74.7,84.12-93.69c-39.59-72.54-401.12,28.69-401.12,28.69S847.13,871.5,874.67,807c7.12-16.7-163.24-79.81-163.24-79.81s204.27,5.24,273.67-39.06Z" class="colorea8845 svgShape"></path></g><g data-name="Ñëîé 3"><path fill="#ffffff" fill-rule="evenodd" d="M842.69,1803.55s-1.25-47.63-.13-96.76c1.1-48.22,4.44-97.4,19-155.84,12.58-50.6,35.24-101.48,64.65-131.88,46.07-47.62,158.94-91.72,257.51-144.65C1300,1212,1453.78,1247.56,1516,1247.56c61.47,0,46.75-84.55,98.67-109.63a55.34,55.34,0,0,1,33.08-4.59c16.5,2.63,32.67,14.13,50.89,19.89,21.56,6.8,44.61,7.81,54.61,8.78,67.18,6.49,154.46.91,215,34.86,48.43,27.17,75.18,90.18,94.4,126.88,12.64,24.15,33.11,60.65,56.65,110.77,32.85,69.91,71.9,160.62,105.93,231,35.82,74.08,71.27,136.51,71.27,136.51Z" class="colorfff svgShape"></path><path fill="#845453" fill-rule="evenodd" d="M900.8,689.3c9-52.47,11.71-90.8,41.39-118.87,2.8-2.74-2.7-12.72-11.37-13.36-12.73-.93-27.64-4.49-34.29-11.15-2.73-2.74-10.23-10.69-7.49-13.31,2.42-2.3,10.27,6.71,16.71,4.48,12.3-4.26,28.65-9.53,45-18.77,28.13-15.84,57.4-38.09,73.79-48.89,25.75-16.83,57.7-29.26,89.22-33.17,30-3.71,59.85.63,72.33,3,28,3.55,55.18-19.35,105.4-3s51.12,19.75,103,53.69c27.76,17.54,43.09,23.23,59.59,51.37,15.29,28.77,2.93,69.17,2.93,69.17s7.57,11.35,18.18,71.83a772.65,772.65,0,0,1,11.26,110.88L1050.69,927.93s-60.6-18.54-94.66-45-36.92-43.42-36.92-43.42-9.76,11.36-20,16.78a44.68,44.68,0,0,1-20.81,4.89,100.81,100.81,0,0,0,19.47-47.25C902.84,771.25,897.09,711.26,900.8,689.3Z" class="color845453 svgShape"></path><path fill="#ffe4ce" fill-rule="evenodd" d="M1185.19,1276.09s24.64-12.75,45.14-28.38a292.45,292.45,0,0,0,36.86-34.13,193.16,193.16,0,0,0-3.7-29.87,136,136,0,0,0-8.7-25.61s-36.93-12.81-68-32.26c-19.47-12.17-41.62-34.57-55.6-46.28-38.77-32.48-64.12-95.21-74.24-111.36-30.36-48.45-52-71.32-59.83-94.82-1.35-5.43-8.92-16.78-11-52.57-.91-36.42,6.06-49.35,14.31-59.88,32.89-45.16,82.91-61,101.27-55.37,15.89,3.86,54,20.53,83.12,20.41a241,241,0,0,0,65.35-10.12s45.19,9.81,86.3,26.4c19,6.81,68.92,60.24,68.92,60.24l10.78-54.93s17.2-16.83,31-25.68c30.54-17.76,49.36,6.07,56.92,17.42,37.3,58.6-14.86,110.92-14.86,110.92L1509,940.68s6,37.55,17.82,74.52,29.34,73.36,29.34,73.36l30.17,37.69,22.56,14.17,21.6,3.9s16.89,13.54,18.93,35.89c3,32.74-7.17,84-25.06,118.48-13.78,26.55-33.26,51.06-61.8,68.29-35.13,21.2-80.81,32.4-108,35.39-64.88,7.14-151.32-18.91-205.53-55.25-25.39-17-46.68-39.4-56.74-54C1184.58,1282,1185.19,1276.09,1185.19,1276.09Z" class="colorffe4ce svgShape"></path><path fill="#c16253" fill-rule="evenodd" d="M1306.77,1001.65c-10.86-10.9-14.92-21.66-14.92-21.66-18.94,4-25.9,27.53-49.91,43-23.79,15.35-46.94,2.3-48.45,21.92-1.42,18.49,44.4,58.51,69.35,48,10.32-4.34,14.1-20.67,20.86-28.78,12-14.37,25.5-26.8,51.6-40.55C1335.3,1023.61,1317.64,1012.56,1306.77,1001.65Z" class="colorc16253 svgShape"></path><path fill="#f4a397" fill-rule="evenodd" d="M1304.73,998.92s-10.08,2.66-14.13,4.74-18.78,12.85-20.76,15.52-9.39,12-12.45,18.09-7.32,16.9-7.91,22.14-1.39,11.27,0,16.7,8.1,19.28,8.1,19.28,9.29-3.26,11.66-6.53,6.14-11.86,9.4-17.39,7.41-12,13-16.71,11.08-10.37,16.81-14.33,11.07-7.91,15.92-10.68,13.83-7.61,13.83-7.61-15.52-7.11-20.07-11.26S1304.73,998.92,1304.73,998.92Z" class="colorf4a397 svgShape"></path><path fill="#ffe4ce" fill-rule="evenodd" d="M1369.25,867.24c0-9.47,3.77-25.74,6.09-40.88,4.78-31.22-1-89.35,19.16-117.7,8.91-12.55,29.65-18.31,44.93-21.18s25.23-2.87,34.66-4.66c6.57-1.24,16.85-1.76,37.91-7,30.06-7.46,76-20.69,112.28-26.52,29.15-4.68,57.17-6.47,73.42-3.87,10.11,1.63,104,8.22,198.3,19.23,31.7,3.7,97.29,14,181.11,22.35,144.44,14.46,322,28.22,322,28.22s16,68,3,139.83-55,147.49-55,147.49-127.5-45.4-262.58-88.47c-111.39-35.52-226.65-64.83-276.78-77.08-56.56-13.82-133.26-21.48-134.2-20.34-6.75,8.27-22.36,34.32-39.85,49.12-22.62,19.15-59.13,34.63-84.6,48.51-18.69,10.18-27.46,20.48-40.5,25.81-17.68,7.22-39.93,14.57-61.62,8.33-10.6-3-18-20.13-22-32.18-3.5-10.76-4-16.77-4-16.77s-23.31,5-37.41-2.18C1372.06,891.49,1369.25,874.3,1369.25,867.24Z" class="colorffe4ce svgShape"></path></g><g data-name="Ñëîé 2"><path fill="#571519" d="M1301,1170.76c-27.43,0-66.34-12.68-104.23-34.83-35.64-21.2-73.19-53.88-95.7-83.25-12.76-16.17-23.45-36.28-34.76-57.58-5.45-10.24-11.07-20.83-16.94-30.92-7.55-14.2-19.88-30.3-30.75-44.52-4.57-6-8.89-11.62-12.46-16.61-5.81-8.26-55.27-82.44-10.45-151.87a4.57,4.57,0,0,1,7.68,5c-33.76,52.3-9.46,113.63,10.22,141.63,3.47,4.84,7.74,10.42,12.27,16.34,11.09,14.49,23.66,30.92,31.47,45.62,5.88,10.1,11.55,20.76,17,31.08,11.12,20.92,21.62,40.68,33.91,56.25,21.9,28.59,58.43,60.36,93.12,81,45.12,26.38,92.84,39.23,116,31.25,18.88-6.12,66.78-39.28,113.52-121.1,16-28.21,23.88-60.83,27.68-83.23a4.57,4.57,0,0,1,9,1.53c-3.93,23.12-12.11,56.84-28.76,86.22-48,84.09-97.12,118.29-118.56,125.25A59.79,59.79,0,0,1,1301,1170.76Z" class="color571519 svgShape"></path><path fill="#571519" d="M1205 987c-5.24 0-33.25-.85-42.62-18.46-4.23-8-2.34-15-.51-21.86 2.11-7.82 4.28-15.92-1.43-28.12-3.53-6.61-12.24-16.54-26.53-30.13a4.57 4.57 0 016.3-6.63c15.22 14.49 24.24 24.87 28.4 32.68 7.24 15.42 4.38 26 2.09 34.58-1.78 6.64-2.67 10.62-.25 15.18 6.21 11.68 27.41 13.85 35.13 13.61a4.64 4.64 0 014.68 4.46 4.57 4.57 0 01-4.45 4.68zM870.75 868.34h-.32a4.57 4.57 0 01-2.06-8.6c.3-.17 32.1-18.45 28.14-85.75-3.41-67.34-4.08-137.16 27.76-186.26 3.13-4.87 6.79-10 10.85-15.14a4.57 4.57 0 017.19 5.65c-3.89 5-7.38 9.81-10.36 14.45-30.37 46.83-29.65 115-26.31 180.8 2.71 46.17-10.35 71.21-20.85 83.66a64.58 64.58 0 0031.08-17.79 4.58 4.58 0 116.63 6.31C901.6 867.63 874.17 868.34 870.75 868.34zM1192.14 732.29c-32 0-58.46-11.88-84.73-25.28-3.57-1.56-7.51-3.45-11.52-5.37-16-7.67-34.19-16.38-44.76-10.48-6.43 3.59-10.48 12.84-12 27.49a4.57 4.57 0 11-9.09-1c1.92-18 7.37-29.31 16.67-34.5 14.7-8.21 34.26 1.16 53.17 10.22 3.91 1.87 7.76 3.72 11.48 5.35 31 15.8 61.9 29.33 101.84 22.6 27-4.31 53.19-20 70.81-32.88-26.6 7.57-69.22 12.44-113.11-12.29a4.57 4.57 0 114.49-8c67 37.75 130.93 1.87 131.57 1.5a4.57 4.57 0 015.46 7.24c-1.9 1.85-47.28 45.36-97.74 53.41A134.79 134.79 0 011192.14 732.29z" class="color571519 svgShape"></path><path fill="#571519" d="M1035.66 939a4.53 4.53 0 01-3.26-1.38c-10.28-10.5-24.63-17.05-39.82-24-32.86-15-70.11-32-78.53-94.75a4.57 4.57 0 019.06-1.21c7.74 57.74 41 72.94 73.27 87.64 16 7.3 31.08 14.19 42.55 25.91a4.58 4.58 0 01-3.27 7.77zM1376.14 731.86a4.58 4.58 0 01-1.62-.29c-17.67-6.67-31.69-4.67-47.91-2.34-20.69 3-44.15 6.32-79.46-8.54a4.57 4.57 0 113.54-8.42c33 13.87 54.15 10.84 74.62 7.91 16.74-2.4 32.56-4.66 52.44 2.84a4.57 4.57 0 01-1.61 8.84zM1375.9 774.49a4.55 4.55 0 01-3.42-1.54c-8.9-10-18.42-17.64-28.29-22.61a4.57 4.57 0 014.1-8.17c10.92 5.49 21.36 13.81 31 24.72a4.56 4.56 0 01-3.41 7.6zM1002.72 688.9a4.56 4.56 0 01-4.56-4.31c-.15-2.66-3-65.12 40.48-76.66 16.51-4.1 37 2.21 60.72 9.53 43 13.27 91.81 28.33 136.69-9.9a4.57 4.57 0 115.92 7c-48.7 41.48-102.26 25-145.3 11.68-22.42-6.92-41.79-12.9-55.76-9.42-36.27 9.62-33.66 66.73-33.62 67.31a4.58 4.58 0 01-4.32 4.81zM965.63 711.69a4.55 4.55 0 01-3-1.1C949.18 699 942.3 684.91 942.2 668.7c-.24-40.13 40.24-77 44.86-81a4.57 4.57 0 016 6.86c-15.59 13.73-41.93 44.8-41.76 74.1.08 13.45 5.89 25.24 17.27 35a4.57 4.57 0 01-3 8zM1474.64 682.26a4.57 4.57 0 01-4.52-3.93c-3.09-21.91-8.38-43.47-14.51-59.14a4.57 4.57 0 118.51-3.33c6.38 16.3 11.87 38.61 15.05 61.19a4.58 4.58 0 01-3.89 5.17A4.68 4.68 0 011474.64 682.26z" class="color571519 svgShape"></path><path fill="#571519" d="M1450.88 635.25a5.19 5.19 0 01-.68 0 4.58 4.58 0 01-3.85-3.92c-.08-.59-8.45-59.68-48.26-80.33a4.57 4.57 0 114.22-8.11c30.5 15.82 44 50.28 49.62 70.87 6.18-22.33 11.82-64.44-21.88-91.39-83.22-68.34-146-95.88-191.89-84.17a4.57 4.57 0 11-2.26-8.86c48.93-12.46 114.33 15.65 199.91 85.93 53 42.36 19.56 116.62 19.22 117.37A4.58 4.58 0 011450.88 635.25zM1633.21 1149.48a3.77 3.77 0 01-.47 0c-61.46-6.39-98.51-65.61-127.9-204.39a4.57 4.57 0 118.94-1.9c35.24 166.44 80.39 193.09 119.9 197.2a4.57 4.57 0 01-.47 9.11zM1259.28 1263.82a4.57 4.57 0 01-3.77-7.15c15.1-22.09 7.59-71.54-4.22-95.87a4.57 4.57 0 018.22-4c13.06 26.91 20.73 79.88 3.55 105A4.56 4.56 0 011259.28 1263.82z" class="color571519 svgShape"></path><path fill="#571519" d="M842.31,1807.06h0a4.56,4.56,0,0,1-4.56-4.57v-8c0-108.27.15-309.81,95.76-387,47.67-38.5,109.92-68.08,170.13-96.69,67.64-32.14,131.53-62.5,158-99.49a4.57,4.57,0,1,1,7.43,5.33c-27.89,38.9-92.81,69.75-161.55,102.42-59.72,28.38-121.48,57.72-168.3,95.54-92.23,74.49-92.32,273.19-92.37,379.94v8A4.58,4.58,0,0,1,842.31,1807.06Z" class="color571519 svgShape"></path><path fill="#571519" d="M1433.26,1408.12c-45.54,0-94.13-10.91-142.5-32.67-36.29-16.33-65.75-38.06-90.06-66.43l-2.26-2.58c-6.65-7.54-16.71-18.94-16.71-29a4.57,4.57,0,0,1,9.14,0c0,6.59,9.38,17.23,14.42,23,.86,1,1.66,1.87,2.35,2.67,23.42,27.33,51.83,48.28,86.87,64,92.13,41.46,184.74,42.52,254.1,2.89,32.48-18.56,55.62-41.08,68.8-66.92,36.53-71.7,30.69-128.92,17.84-149.88-3.47-5.67-7.42-8.79-11.1-8.79a4.57,4.57,0,1,1,0-9.14c7,0,13.7,4.67,18.89,13.16,16.68,27.22,18.32,88.52-17.49,158.8-14,27.46-38.35,51.24-72.4,70.7C1517.91,1398.06,1477,1408.12,1433.26,1408.12Z" class="color571519 svgShape"></path><path fill="#571519" d="M2293.56,1801.74a4.59,4.59,0,0,1-3.85-2.09c-25.27-39.14-67.3-130.45-111.79-227.12-65.85-143.09-140.49-305.27-182.6-347.37C1946.18,1176,1880,1173.44,1810,1170.71c-22.22-.86-45.19-1.75-67.22-4.31-42.53-4.93-52.89-10.11-64.89-16.12-7.5-3.75-15.25-7.63-32.79-12-7-1.74-10.28-.64-14.88.88a40.74,40.74,0,0,1-14.07,2.59,4.57,4.57,0,0,1,0-9.14,32.21,32.21,0,0,0,11.21-2.13c5.13-1.69,10.44-3.45,20-1.06,18.53,4.62,27.1,8.92,34.67,12.71,11.23,5.62,20.93,10.47,61.85,15.22,21.68,2.51,44.48,3.4,66.52,4.25,68.73,2.68,139.8,5.44,191.47,57.12,43.27,43.26,118.27,206.22,184.44,350,44.36,96.36,86.25,187.38,111.17,226a4.58,4.58,0,0,1-3.83,7.06Z" class="color571519 svgShape"></path><path fill="#571519" d="M2040.5 1810.69a4.56 4.56 0 01-4.43-3.46c-7-28-13.51-54.85-19.9-81.16-15.5-63.88-30.14-124.21-49.48-191.9-1.17-4.09-2.74-9.2-4.53-15-11.31-36.8-30.24-98.38-17.55-123.74a4.57 4.57 0 118.17 4.09c-11 22.09 7.92 83.8 18.11 117 1.82 5.9 3.41 11.07 4.59 15.21 19.39 67.86 34 128.29 49.57 192.25 6.38 26.29 12.88 53.09 19.89 81.11a4.56 4.56 0 01-3.33 5.53A4.22 4.22 0 012040.5 1810.69zM1176.12 1806.22a4.58 4.58 0 01-4.11-2.57c-6.5-13.37-11.58-36.89-18-66.67-13.66-63.24-32.36-149.86-78.32-190.56a4.57 4.57 0 116.06-6.84c48.21 42.68 67.27 131 81.19 195.47 6 28 11.28 52.23 17.3 64.6a4.58 4.58 0 01-2.11 6.11A4.63 4.63 0 011176.12 1806.22zM1253.66 1099.23c-10.52 0-23-4.83-35.82-14.06-14.62-10.54-29.9-27.74-28.91-40.59 1.13-14.63 12.19-15.88 22.89-17.1 8.4-1 17.92-2 27.64-8.31 10.36-6.68 17.56-15.18 23.92-22.68 8.06-9.51 15.68-18.5 27.54-21a4.57 4.57 0 111.87 8.94c-8.79 1.84-14.81 8.94-22.44 17.94-6.76 8-14.44 17-25.94 24.45s-22.63 8.7-31.56 9.71c-11.74 1.33-14.31 2.23-14.8 8.72s9 20.82 25.13 32.48c14.76 10.64 28.93 14.75 37.89 11 5-2.12 8.55-9 11.94-15.57 2.17-4.23 4.41-8.6 7.18-11.92 12.31-14.75 26-27.47 53-41.67a4.57 4.57 0 114.26 8.09c-25.63 13.5-38.61 25.52-50.22 39.43-2.12 2.54-4 6.28-6.06 10.24-4 7.69-8.42 16.41-16.54 19.83A28.11 28.11 0 011253.66 1099.23z" class="color571519 svgShape"></path><path fill="#571519" d="M1359.61 1032.71a4.4 4.4 0 01-.8-.07c-41.74-7.44-67.89-32.56-77.7-74.65a4.57 4.57 0 018.9-2.08c9 38.75 32.06 60.9 70.4 67.73a4.57 4.57 0 01-.8 9.07zM1221.52 880.68a4.57 4.57 0 01-4-6.68c11.32-21.78 22.13-41.28 39.86-59.3a4.57 4.57 0 016.51 6.41c-16.84 17.11-27.29 36-38.25 57.11A4.59 4.59 0 011221.52 880.68zM1243.06 870.07a4.88 4.88 0 01-.93-.09 4.58 4.58 0 01-3.55-5.4c3.07-14.92 25.76-35.55 37.09-41.82a4.57 4.57 0 014.42 8c-10.72 5.93-30.37 25-32.56 35.66A4.58 4.58 0 011243.06 870.07zM1172.23 851.14a4.57 4.57 0 01-1.17-9c9.46-2.51 15.45-12.85 20.74-22 10.9-18.8 22.19-36.45 41.13-46.93a4.57 4.57 0 014.42 8c-16.89 9.35-27.41 25.86-37.57 43.4-6 10.25-13.26 22.85-26.37 26.35A4.83 4.83 0 011172.23 851.14z" class="color571519 svgShape"></path><path fill="#571519" d="M1172.17 862.36c-7.94 0-14.09-3.68-18.66-11.11a4.57 4.57 0 117.78-4.79c4 6.43 8.73 8.06 17.06 5.85a4.57 4.57 0 012.35 8.83A32.8 32.8 0 011172.17 862.36zM937.58 562c-29.41 0-49.45-14-52.71-24.31-1.28-4.05-.16-7.73 3-9.85 2.12-1.48 4-.63 6.25.44 7.13 3.3 9.62 4.1 10.45 4.18 12.76-1.66 26.69-9.21 39-15.86 18-9.75 34.57-20.76 50.6-31.41 41.4-27.5 80.51-53.47 136.79-54.72 15.13-.31 51.86 1.1 65.61 21.61a4.57 4.57 0 11-7.59 5.08c-9.17-13.68-35.88-18-57.82-17.55-53.63 1.19-91.67 26.45-131.93 53.19-16.2 10.76-33 21.89-51.22 31.78-12.45 6.74-27.82 15.07-42.71 17-1.78.22-4.13-.31-8.45-2.08l0 0c6.84 6.71 21.56 13.78 42.35 13.32a4.69 4.69 0 014.66 4.48 4.57 4.57 0 01-4.48 4.66zM1256.39 1097.44a4.56 4.56 0 01-3.73-1.93c-9.82-13.82-10.6-33.24-2.13-53.29 10.06-23.82 30.67-42.58 50.13-45.6a4.57 4.57 0 111.4 9c-16.49 2.57-34.22 19.07-43.11 40.13-7.21 17.06-6.78 33.26 1.16 44.44a4.57 4.57 0 01-1.08 6.37A4.49 4.49 0 011256.39 1097.44zM1403.73 905.58c-9.9 0-19.48-2.2-28-9.74-14.08-12.45-9.25-39.44-6.37-55.57l.64-3.61c2.59-15.1 3.25-30.87 3.88-46.12.75-18 1.52-36.63 5.45-54.6 3.72-17.06 10.28-35.59 30.65-43.71 18.56-7.38 39.78-10.39 60.3-13.3 12.38-1.75 24.07-3.41 35.16-5.95 14.3-3.27 29.19-7.2 43.6-11 32.72-8.64 66.56-17.57 99.58-20.66 28-2.61 56.27.1 83.64 2.71 6.48.62 13 1.24 19.4 1.79q14.6 1.25 29.16 2.41c37.72 3.06 76.72 6.22 115.12 11.72 21.91 3.14 44.23 6.06 65.81 8.89 20 2.62 40.63 5.33 60.93 8.2 13.83 2 315.31 27.29 378.71 32.26a4.57 4.57 0 11-.72 9.11c-59.15-4.64-364.29-30.2-379.27-32.32-20.26-2.87-40.89-5.57-60.83-8.18-21.62-2.84-44-5.77-65.93-8.91-38.12-5.46-77-8.61-114.56-11.66q-14.58-1.19-29.2-2.41c-6.47-.55-13-1.17-19.49-1.8-27-2.57-54.83-5.23-81.92-2.71-32.27 3-65.74 11.86-98.1 20.4-14.48 3.82-29.44 7.78-43.89 11.08-11.47 2.63-23.9 4.39-35.92 6.09-20 2.84-40.65 5.76-58.19 12.75-16.36 6.51-21.74 21.71-25.12 37.16-3.75 17.19-4.51 35.41-5.24 53-.65 15.54-1.31 31.61-4 47.29l-.65 3.67c-2.54 14.24-6.8 38.07 3.42 47.11 11.42 10.09 26.3 7.77 42.06 5.31 10.11-1.58 20.58-3.21 30.5-1.51a4.57 4.57 0 01-1.55 9c-8.44-1.44-17.72 0-27.54 1.53C1418.09 904.45 1410.83 905.58 1403.73 905.58z" class="color571519 svgShape"></path><path fill="#571519" d="M1490.58,882.94a4.67,4.67,0,0,1-1.7-.33,4.58,4.58,0,0,1-2.54-6c7.25-18.08,5.41-36.91,3.45-56.85s-4-40.66,4-60.5a4.56,4.56,0,1,1,8.47,3.4c-7.12,17.77-5.29,36.44-3.35,56.21,2,20.15,4,41-4.07,61.14A4.56,4.56,0,0,1,1490.58,882.94Z" class="color571519 svgShape"></path><path fill="#571519" d="M1435.79,920.66a4.47,4.47,0,0,1-1.7-.33,4.57,4.57,0,0,1-2.54-5.94c4.76-11.85,18.2-20.49,30.06-28.12a140.89,140.89,0,0,0,13.32-9.23c3-2.51,5.36-5.78,7.85-9.24a59,59,0,0,1,8.48-10.06,4.57,4.57,0,0,1,6.07,6.84,51.4,51.4,0,0,0-7.13,8.56c-2.71,3.77-5.52,7.67-9.42,10.92a147.4,147.4,0,0,1-14.22,9.9c-10.72,6.89-22.86,14.69-26.53,23.83A4.56,4.56,0,0,1,1435.79,920.66Z" class="color571519 svgShape"></path><path fill="#571519" d="M1463.74 956.1a46.47 46.47 0 01-12.31-1.49c-21-5.83-32.09-37.4-33.37-53a4.57 4.57 0 119.11-.75c1.32 16 12.12 40.89 26.71 44.94 16.18 4.51 48.39-5.06 63.41-16 17.29-12.63 36.52-23 55.12-33 20.69-11.13 42.1-22.65 60.44-37.19 10.09-8 17.46-18.78 25.27-30.21 5-7.35 10.19-14.94 16.15-21.66 12-13.54 25.44-25.07 38.45-36.22 4.66-4 9.34-8 14-12.12a4.57 4.57 0 016.07 6.83c-4.68 4.16-9.4 8.2-14.1 12.23-13.37 11.45-26 22.27-37.56 35.33-5.57 6.3-10.37 13.32-15.45 20.76-7.84 11.49-16 23.37-27.13 32.23-19 15-40.74 26.75-61.8 38.07-18.32 9.86-37.26 20-54 32.31C1510.29 946.2 1484.25 956.1 1463.74 956.1zM1489.93 792.31h-.23c-22.3-1.12-43.58-14.11-62.35-25.57-2.32-1.42-4.61-2.82-6.85-4.16a4.57 4.57 0 014.69-7.84c2.27 1.36 4.58 2.77 6.93 4.2 17.84 10.89 38.06 23.24 58 24.24a4.57 4.57 0 01-.22 9.13z" class="color571519 svgShape"></path><path fill="#571519" d="M1403.61,860.32A4.57,4.57,0,0,1,1401,852c6.75-4.76,14.27-8,21.54-11.07,6.8-2.9,13.23-5.65,18.85-9.5,7.87-5.39,10.14-21.76,12-34.91.88-6.39,1.72-12.44,3.12-17a4.57,4.57,0,1,1,8.74,2.65c-1.19,3.91-2,9.61-2.81,15.64-2.18,15.71-4.64,33.51-15.84,41.19-6.37,4.36-13.52,7.42-20.43,10.37-7.15,3-13.9,5.93-19.87,10.14A4.55,4.55,0,0,1,1403.61,860.32Z" class="color571519 svgShape"></path><path fill="#571519" d="M1494 843.38a4.47 4.47 0 01-1.74-.35c-12.19-5-28.24-5.56-47.7-1.64a4.57 4.57 0 01-1.8-9c21.25-4.28 39.06-3.56 53 2.15a4.57 4.57 0 01-1.73 8.8zM2345.06 1006.35a4.5 4.5 0 01-1.64-.31c-82.61-31.86-520.09-181.73-668-185.13a4.57 4.57 0 01.11-9.14h.1c149.09 3.42 588.21 153.77 671.08 185.74a4.57 4.57 0 01-1.65 8.83zM1068.2 943.15a4.53 4.53 0 01-3.37-1.49 4.58 4.58 0 01.29-6.46c14.48-13.22 48-23.88 68-17.28a4.57 4.57 0 11-2.87 8.68c-16.37-5.43-46.57 4.07-58.92 15.35A4.55 4.55 0 011068.2 943.15z" class="color571519 svgShape"></path><path fill="#571519" d="M1094 948.39a4.57 4.57 0 01-3.53-7.48c8.38-10.18 29.68-14.71 39.77-15.69a4.57 4.57 0 11.88 9.09c-10.55 1-27.94 5.55-33.59 12.41A4.56 4.56 0 011094 948.39zM1706.65 608.87a4.57 4.57 0 01-.21-9.14c62.14-2.91 118.28-5.36 176.24-5.93h0a4.57 4.57 0 010 9.14c-57.8.56-113.86 3-175.9 5.93zM1959.67 628.25l-.43 0c-46.74-4.35-94-4.11-139.79-3.89-31.79.16-64.65.32-97.21-1a4.57 4.57 0 01-4.37-4.76 4.68 4.68 0 014.76-4.37c32.34 1.35 65.11 1.19 96.77 1 46-.22 93.51-.46 140.69 3.93a4.57 4.57 0 01-.42 9.12zM1902.09 897.47a4.47 4.47 0 01-1.74-.35c-47-19.41-103.06-36.3-162.17-48.84a4.57 4.57 0 111.89-8.94c59.65 12.65 116.28 29.71 163.77 49.34a4.57 4.57 0 01-1.75 8.79zM1944 945.76a4.51 4.51 0 01-2.07-.5c-34.79-17.73-112.16-51.78-134.75-57.16a4.57 4.57 0 112.11-8.89c23.58 5.61 100.79 39.56 136.79 57.91a4.57 4.57 0 01-2.08 8.64zM1596.92 631.73a4.51 4.51 0 01-2.52-.76 4.57 4.57 0 01-1.27-6.34 76.16 76.16 0 015.72-6.83c-16.51 6.27-37.12 11.05-44.57-.12-6.73-10.1-2.66-31.74 4.16-53.08-15.25 23.52-32.72 47.19-43.87 52-5.87 2.52-10.39 1-13.15-.7-4.45-2.77-7.63-8.29-9.9-14.52-1.49 10-3.31 19.5-5.18 23.24a4.57 4.57 0 11-8.17-4.09c2.63-5.26 6.22-33 7.86-49.28a4.73 4.73 0 014.66-4.11 4.57 4.57 0 014.45 4.33c.69 12.78 4.59 32.61 11.12 36.67.92.57 2.29 1.09 4.71.06 14.58-6.25 49.81-62.52 69.93-98.82a4.57 4.57 0 018.11 4.22c-15.22 31.2-36 85.66-27.12 99 5.37 8.07 35.5-2.75 54.17-12.61a4.57 4.57 0 015.4 7.24c-7 7.12-18.77 19.52-20.73 22.46A4.56 4.56 0 011596.92 631.73zM1028.38 910.72a4.52 4.52 0 01-2.89-1 4.57 4.57 0 01-.64-6.43c14.71-17.94 35.7-19.27 56-20.54 4-.26 8-.51 11.94-.9l1.58-.15c6.46-.62 13.15-1.27 15.61-4.26 1.16-1.42 1.58-3.61 1.28-6.7a4.57 4.57 0 119.09-.9c.55 5.55-.56 10.06-3.31 13.4-4.87 5.93-13.47 6.76-21.79 7.56l-1.56.15c-4 .4-8.14.66-12.27.92-19.19 1.21-37.31 2.35-49.5 17.21A4.56 4.56 0 011028.38 910.72zM1280.62 844.91a4.57 4.57 0 01-4.57-4.57c0-1.12 0-2.32 0-3.58-.12-7.55-.26-17 3.11-23.7a4.57 4.57 0 018.17 4.09c-2.37 4.74-2.24 12.91-2.14 19.47 0 1.31 0 2.56 0 3.72A4.58 4.58 0 011280.62 844.91z" class="color571519 svgShape"></path><path fill="#571519" d="M1127.73,891.36a4.58,4.58,0,0,1-4.57-4.57v-2c0-6.76.09-14.42-4.37-18.89a4.57,4.57,0,1,1,6.47-6.45c7.16,7.16,7.09,17.27,7,25.4v1.9A4.57,4.57,0,0,1,1127.73,891.36Z" class="color571519 svgShape"></path><path d="M781.69 1025.07c34.9 53.09 35.8 114.13 2 136.33s-89.47-2.82-124.36-55.91c0 0-1.06-32 22.11-57.25C709 1018.28 762.74 996.24 781.69 1025.07zM942.09 919.64c34.89 53.09 35.79 114.13 2 136.34s-89.47-2.83-124.36-55.92c0 0-3-32.34 21.21-58.17C868.07 913 923.66 891.61 942.09 919.64z" style="isolation:isolate" fill="#ffffff" fill-rule="evenodd" opacity=".5" class="colorfff svgShape"></path><path d="M698.16 1147.64l53.16-135.82s9.72-.61 17.83 2.42a31.48 31.48 0 0113 9.6l-41.51 144.38s-13.65-3.06-24.8-9.13A120.2 120.2 0 01698.16 1147.64zM861.06 1043.5l48-137.59a63.75 63.75 0 019.07.17 57.24 57.24 0 0110.33 2.09l-38.35 151.34a126.49 126.49 0 01-15.91-7.08A94 94 0 01861.06 1043.5zM908.42 1064l35.19-143.45 10.15 17.82L924.66 1064z" style="isolation:isolate" fill="#ffffff" fill-rule="evenodd" opacity=".5" class="colorfff svgShape"></path><path fill="#571519" d="M755.5 1174c-33.25 0-72.88-24.75-100-66a4.57 4.57 0 117.63-5c33.46 50.9 86.4 75.4 118 54.6 15-9.85 23-28.56 22.69-52.69-.36-24.9-9.6-52.35-26-77.31a4.57 4.57 0 117.63-5c17.35 26.39 27.12 55.58 27.51 82.19.41 27.37-9.11 48.85-26.81 60.48A55.14 55.14 0 01755.5 1174zM915.9 1068.55c-33.26 0-72.88-24.76-100-66a4.57 4.57 0 017.64-5c33.45 50.9 86.4 75.4 118 54.61s30.14-79.11-3.32-130a4.57 4.57 0 017.64-5c36.22 55.11 36.54 119.11.7 142.67A55.15 55.15 0 01915.9 1068.55z" class="color571519 svgShape"></path><path fill="#571519" d="M781 1039.92a4.56 4.56 0 01-4.49-3.79c-1.15-6.67 5.51-15.89 8.43-19.55 14.61-18.32 30.61-24.09 50.32-18.13a4.57 4.57 0 11-2.64 8.74c-16.11-4.85-28.23-.34-40.54 15.09-4.21 5.28-6.84 10.71-6.57 12.3a4.57 4.57 0 01-3.73 5.28A5.12 5.12 0 01781 1039.92zM673.06 1125.26a4.58 4.58 0 01-3.89-7c.81-1.33 82-133.57 119.1-190.75 16.6-25.6 42.41-34.92 43.51-35.3a4.57 4.57 0 013 8.62c-.24.08-24 8.75-38.88 31.65-37 57.09-118.17 189.24-119 190.57A4.59 4.59 0 01673.06 1125.26zM953.07 937.25a4.57 4.57 0 01-4.19-6.39c.47-1.08 47.09-108.3 68.82-151.54 9.59-19.08 23.63-23.94 24.22-24.14a4.57 4.57 0 012.89 8.67c-.42.15-11.15 4.06-19 19.58-21.61 43-68.13 150-68.6 151.07A4.55 4.55 0 01953.07 937.25z" class="color571519 svgShape"></path></g></svg></g></svg>